<?xml version="1.0" encoding="iso-8859-1"?>
<svg xmlns="http://www.w3.org/2000/svg" xmlns:xlink="http://www.w3.org/1999/xlink" x="0px" y="0px"
	 viewBox="0 0 512 512" style="enable-background:new 0 0 512 512;" xml:space="preserve">
<path style="fill:#86F28B;" d="M0,512l51.917-148.334c-19.938-36.123-30.444-76.904-30.444-118.402
	c0-65.512,25.511-127.104,71.836-173.427S201.224,0,266.737,0S393.84,25.511,440.164,71.836S512,179.751,512,245.263
	s-25.511,127.104-71.836,173.427c-46.324,46.324-107.915,71.836-173.427,71.836c-41.5,0-82.279-10.505-118.402-30.444L0,512z"/>
<path style="fill:#66E26F;" d="M0,512l148.333-51.917c36.124,19.938,76.904,30.444,118.403,30.444
	c65.512,0,127.104-25.512,173.427-71.836S512,310.776,512,245.263S486.489,118.16,440.164,71.836L0,512z"/>
<path style="fill:#FFFFFF;" d="M211.018,300.982c58.642,58.642,125.195,87.165,148.652,63.708l28.314-28.314
	c5.864-5.864,5.864-15.372,0-21.236l-35.393-35.393c-5.864-5.864-15.372-5.864-21.236,0l-21.236,21.236
	c-43.487-20.599-78.502-55.615-99.101-99.101l21.236-21.236c5.864-5.864,5.864-15.372,0-21.236l-35.393-35.393
	c-5.864-5.864-15.372-5.864-21.236,0l-28.314,28.314C123.853,175.787,152.376,242.34,211.018,300.982z"/>
<path style="fill:#DCF4FF;" d="M387.985,315.14l-35.393-35.393c-5.864-5.864-15.372-5.864-21.236,0l-21.236,21.236
	c-21.743-10.299-41.368-24.203-58.133-40.968l-40.968,40.968l0,0c58.642,58.642,125.195,87.165,148.652,63.708l28.314-28.314
	C393.849,330.511,393.849,321.004,387.985,315.14z"/>
</svg>
